<svg width="27" height="27" viewBox="0 0 27 27" fill="none" xmlns="http://www.w3.org/2000/svg">
<path d="M16.4737 13.5L26.5687 3.40467C26.8463 3.12677 26.9996 2.75601 27 2.36067C27 1.96511 26.8468 1.59392 26.5687 1.31645L25.684 0.432038C25.4059 0.153477 25.0351 0.000915527 24.6394 0.000915527C24.2442 0.000915527 23.8735 0.153477 23.5954 0.432038L13.5004 10.5267L3.40507 0.432038C3.12739 0.153477 2.75641 0.000915527 2.36085 0.000915527C1.96573 0.000915527 1.59476 0.153477 1.31707 0.432038L0.432 1.31645C-0.144 1.89245 -0.144 2.82933 0.432 3.40467L10.5271 13.5L0.432 23.595C0.154098 23.8733 0.00109756 24.2441 0.00109756 24.6394C0.00109756 25.0347 0.154098 25.4055 0.432 25.6836L1.31685 26.568C1.59454 26.8464 1.96573 26.9992 2.36063 26.9992C2.7562 26.9992 3.12717 26.8464 3.40485 26.568L13.5002 16.4731L23.5951 26.568C23.8733 26.8464 24.244 26.9992 24.6391 26.9992H24.6396C25.0349 26.9992 25.4057 26.8464 25.6838 26.568L26.5684 25.6836C26.8461 25.4057 26.9993 25.0347 26.9993 24.6394C26.9993 24.2441 26.8461 23.8733 26.5684 23.5952L16.4737 13.5Z" fill="black"/>
</svg>
