<svg width="30" height="30" viewBox="0 0 30 30" fill="none" xmlns="http://www.w3.org/2000/svg">
<g clip-path="url(#clip0)">
<path d="M29.5205 13.8344L18.6864 3.00008C18.3772 2.69081 17.965 2.52106 17.5255 2.52106C17.0855 2.52106 16.6735 2.69106 16.3642 3.00008L15.3806 3.98397C15.0716 4.29275 14.9013 4.70519 14.9013 5.14494C14.9013 5.58445 15.0716 6.01078 15.3806 6.31956L21.701 12.6539H1.62072C0.71536 12.6539 0 13.3627 0 14.2683V15.6592C0 16.5648 0.71536 17.3451 1.62072 17.3451H21.7727L15.3808 23.7148C15.0718 24.024 14.9016 24.4253 14.9016 24.865C14.9016 25.3043 15.0718 25.7114 15.3808 26.0204L16.3645 27.0011C16.6738 27.3104 17.0857 27.4789 17.5257 27.4789C17.9652 27.4789 18.3774 27.3082 18.6867 26.9989L29.5207 16.1648C29.8307 15.8546 30.0012 15.4405 30 15.0002C30.001 14.5585 29.8307 14.1441 29.5205 13.8344Z" fill="#0033CC"/>
</g>
<defs>
<clipPath id="clip0">
<rect width="30" height="30" fill="white"/>
</clipPath>
</defs>
</svg>
