<svg width="232" height="236" viewBox="0 0 232 236" fill="none" xmlns="http://www.w3.org/2000/svg">
<path d="M228.13 152.091H3.39144V25.5286C3.39144 17.9073 9.46482 11.7294 16.9572 11.7294H214.565C222.057 11.7294 228.13 17.9073 228.13 25.5286V152.091Z" fill="#F5F9FA"/>
<path d="M214.565 11.7294H196.477C203.969 11.7294 210.043 17.9073 210.043 25.5286V152.091H228.13V25.5286C228.13 17.9073 222.057 11.7294 214.565 11.7294Z" fill="#F0F4F5"/>
<path d="M179.773 20.0089H51.7488C47.2535 20.0089 43.6093 16.302 43.6093 11.7294C43.6093 7.15677 47.2535 3.44983 51.7488 3.44983H179.773C184.268 3.44983 187.913 7.15677 187.913 11.7294C187.913 16.302 184.268 20.0089 179.773 20.0089Z" fill="#FF8FE9"/>
<path d="M179.773 3.44983H161.685C166.181 3.44983 169.825 7.15677 169.825 11.7294C169.825 16.302 166.181 20.0089 161.685 20.0089H179.773C184.268 20.0089 187.912 16.302 187.912 11.7294C187.912 7.15677 184.268 3.44983 179.773 3.44983Z" fill="#FF75E4"/>
<path d="M214.565 172.491H16.9572C9.46482 172.491 3.39144 166.313 3.39144 158.691V152.091H228.13V158.691C228.13 166.313 222.057 172.491 214.565 172.491Z" fill="#51ACDB"/>
<path d="M210.043 152.091V158.691C210.043 166.313 203.969 172.491 196.477 172.491H214.565C222.057 172.491 228.13 166.313 228.13 158.691V152.091H210.043Z" fill="#32A2DB"/>
<path d="M24.8705 38.1779H86.0669V78.1948H24.8705V38.1779Z" fill="#A6E4FF"/>
<path d="M141.996 99.9526H93.2169C86.7574 99.9526 81.0521 95.771 79.1447 89.4932L71.8423 64.3781C70.9117 61.1781 73.2694 57.9675 76.5501 57.9675H154.75L141.996 99.9526Z" fill="#FF9225"/>
<path d="M92.984 130.95C98.1891 130.95 102.409 126.658 102.409 121.363C102.409 116.068 98.1891 111.776 92.984 111.776C87.779 111.776 83.5595 116.068 83.5595 121.363C83.5595 126.658 87.779 130.95 92.984 130.95Z" fill="#FFE100"/>
<path d="M135.276 130.95C140.481 130.95 144.7 126.658 144.7 121.363C144.7 116.068 140.481 111.776 135.276 111.776C130.071 111.776 125.851 116.068 125.851 121.363C125.851 126.658 130.071 130.95 135.276 130.95Z" fill="#FFE100"/>
<path d="M214.565 8.27955H190.794C189.343 3.49029 184.951 0 179.773 0H80.6338C78.7603 0 77.2423 1.5446 77.2423 3.44981C77.2423 5.35503 78.7603 6.89963 80.6338 6.89963H179.773C182.391 6.89963 184.521 9.06611 184.521 11.7294C184.521 14.3926 182.391 16.5591 179.773 16.5591H51.7483C49.1301 16.5591 47.0003 14.3926 47.0003 11.7294C47.0003 9.06611 49.1301 6.89963 51.7483 6.89963H62.552C67.0518 6.75197 67.0183 0.135233 62.552 0H51.7487C46.5707 0 42.1795 3.49029 40.7275 8.27955H16.9572C7.60676 8.27955 0 16.0173 0 25.5286V158.691C0 168.203 7.60676 175.94 16.9572 175.94H112.369V204.617C94.7299 209.068 97.411 235.052 115.761 235.507C134.114 235.05 136.789 209.065 119.152 204.617V175.94H160.98C165.419 175.817 165.501 169.192 160.98 169.041H16.9572C11.3473 169.041 6.78286 164.398 6.78286 158.691V155.541H224.739V158.691C224.739 164.398 220.174 169.041 214.565 169.041H179.068C174.609 169.163 174.567 175.801 179.068 175.94H214.565C223.915 175.94 231.522 168.203 231.522 158.691V25.5286C231.522 16.0173 223.915 8.27955 214.565 8.27955ZM124.352 219.868C124.352 224.687 120.498 228.608 115.761 228.608C104.379 228.168 104.381 211.566 115.761 211.129C120.498 211.129 124.352 215.049 124.352 219.868ZM6.78286 148.641V25.5286C6.78286 19.8217 11.3473 15.1792 16.9572 15.1792H40.7275C42.179 19.9684 46.5707 23.4587 51.7487 23.4587H179.773C184.951 23.4587 189.343 19.9684 190.795 15.1792H214.565C220.174 15.1792 224.739 19.8217 224.739 25.5286V148.641H6.78286Z" fill="black"/>
<path d="M176.54 44.5564C176.54 42.6512 175.022 41.1066 173.148 41.1066H164.073C159.46 41.1066 155.446 44.1185 154.084 48.6001L152.284 54.5181H89.4583V38.178C89.4583 36.2727 87.9403 34.7281 86.0668 34.7281H24.8705C22.9971 34.7281 21.4791 36.2727 21.4791 38.178V78.1949C21.4791 80.1001 22.9971 81.6447 24.8705 81.6447H73.3259L75.9043 90.5121C78.2466 98.2226 85.2036 103.403 93.2169 103.403H137.409L135.905 108.343C129.963 108.049 124.343 112.246 122.86 118.125L105.469 118.428C101.765 103.522 80.537 105.838 80.168 121.363C80.471 136.322 100.638 139.291 105.213 125.266C105.213 125.266 117.282 125.119 122.977 125.023C124.537 130.435 129.458 134.399 135.276 134.399C147.979 134.343 152.798 117.528 142.35 110.499L160.565 50.6382C161.043 49.0637 162.453 48.0058 164.073 48.0058H173.148C175.022 48.0062 176.54 46.4617 176.54 44.5564ZM92.984 127.5C89.6577 127.5 86.9509 124.747 86.9509 121.363C87.2543 113.232 98.7155 113.235 99.0176 121.363C99.0176 124.747 96.3108 127.5 92.984 127.5ZM135.276 127.5C131.949 127.5 129.242 124.747 129.242 121.363C129.545 113.233 141.007 113.235 141.309 121.363C141.309 124.747 138.603 127.5 135.276 127.5ZM28.2619 74.7451V41.6278H82.6754V54.5181H76.55C71.0803 54.5181 67.0386 60.0217 68.5897 65.357L71.3195 74.7451H28.2619ZM93.2173 96.5028C88.1966 96.5028 83.8439 93.2765 82.3973 88.5149L75.0949 63.3998C74.9289 62.2443 75.4141 61.5833 76.5505 61.4173H150.185L139.509 96.5023H93.2173V96.5028Z" fill="black"/>
<path d="M205.747 83.348H168.366C163.893 83.4841 163.874 90.105 168.366 90.2476H205.747C210.219 90.1119 210.238 83.4906 205.747 83.348Z" fill="black"/>
<path d="M205.747 98.0654H168.366C163.893 98.2015 163.874 104.822 168.366 104.965H205.747C210.219 104.829 210.238 98.2084 205.747 98.0654Z" fill="black"/>
<path d="M205.747 112.783H168.366C163.893 112.919 163.874 119.54 168.366 119.682H205.747C210.219 119.547 210.238 112.926 205.747 112.783Z" fill="black"/>
<path d="M193.99 127.5H168.366C163.89 127.638 163.877 134.258 168.366 134.4H193.99C195.863 134.4 197.381 132.855 197.381 130.95C197.381 129.045 195.863 127.5 193.99 127.5Z" fill="black"/>
<path d="M90.0642 68.9963C85.6997 68.9963 85.6924 75.8959 90.0642 75.8959C94.4288 75.8959 94.436 68.9963 90.0642 68.9963Z" fill="black"/>
<path d="M105.183 68.9963C100.818 68.9963 100.811 75.8959 105.183 75.8959C109.547 75.8959 109.554 68.9963 105.183 68.9963Z" fill="black"/>
<path d="M120.301 68.9963C115.936 68.9963 115.929 75.8959 120.301 75.8959C124.665 75.8959 124.673 68.9963 120.301 68.9963Z" fill="black"/>
<path d="M135.419 68.9963C131.054 68.9963 131.047 75.8959 135.419 75.8959C139.784 75.8959 139.791 68.9963 135.419 68.9963Z" fill="black"/>
<path d="M97.6235 81.8755C93.2589 81.8755 93.2517 88.7752 97.6235 88.7752C101.988 88.7752 101.995 81.8755 97.6235 81.8755Z" fill="black"/>
<path d="M112.742 81.8755C108.377 81.8755 108.37 88.7752 112.742 88.7752C117.106 88.7752 117.113 81.8755 112.742 81.8755Z" fill="black"/>
<path d="M127.86 81.8755C123.496 81.8755 123.488 88.7752 127.86 88.7752C132.224 88.7752 132.231 81.8755 127.86 81.8755Z" fill="black"/>
</svg>
